<svg width="60" height="52" viewBox="0 0 60 52" fill="none" xmlns="http://www.w3.org/2000/svg">
<path d="M57.2955 52H43.7645C43.7645 52 43.6029 41.7254 37.8593 42.8062C34.543 43.4297 34.1781 51.8938 34.1781 51.8938L19.5756 51.6097V45.7692C19.5756 45.7692 11.4048 48.1964 8.73511 41.3997C6.06541 34.6031 8.41179 25.7857 8.41179 25.7857C8.41179 25.7857 2.91073 21.9012 4.36567 17.8574C4.36567 17.8574 -0.678119 12.8298 0.0770644 7.09778C0.850723 1.22029 6.22938 -2.82583 12.3771 2.84382C12.3771 2.84382 16.7973 -1.84201 21.0721 0.816141C28.6655 5.53661 23.3007 13.0746 23.3007 13.0746C23.3007 13.0746 28.7763 7.66359 38.5891 8.42801C46.5728 9.04694 66.2168 13.5295 57.2955 52Z" fill="#F2F2F2"/>
<path d="M12.9133 22.9967C12.9133 22.9967 -1.54603 11.8144 2.34998 5.24179C6.31065 -1.43476 12.4976 5.70368 12.4976 5.70368C12.4976 5.70368 15.9202 -0.432477 20.285 2.41505C29.4996 8.4288 12.9133 22.9967 12.9133 22.9967Z" fill="#DC8880"/>
<path d="M12.9129 23.5737C12.7882 23.5737 12.6635 23.5344 12.5596 23.4536C11.9522 22.9848 -2.25772 11.881 1.85307 4.94814C3.0863 2.86735 4.66364 1.81194 6.54121 1.81194C9.06772 1.81194 11.391 3.77726 12.4025 4.77032C13.2316 3.55556 15.2501 1.08447 17.9336 1.08447C18.8389 1.08447 19.7373 1.37084 20.5987 1.93203C22.467 3.15141 23.4855 4.79341 23.631 6.81185C24.1321 13.8256 13.7374 23.0425 13.294 23.4305C13.1854 23.5252 13.0492 23.5737 12.9129 23.5737ZM6.54121 2.96666C5.10012 2.96666 3.85765 3.83038 2.84612 5.53705C-0.412483 11.0312 10.6728 20.4375 12.8875 22.2388C14.712 20.5506 22.8896 12.6501 22.4786 6.895C22.3608 5.23221 21.5386 3.92507 19.9682 2.90199C19.2962 2.4632 18.6126 2.24149 17.9336 2.24149C15.123 2.24149 13.0215 5.95043 13.0007 5.98738C12.9083 6.15135 12.742 6.2599 12.555 6.28069C12.3679 6.29916 12.1831 6.22757 12.0584 6.08438C12.033 6.05205 9.31945 2.96666 6.54121 2.96666Z" fill="#3B321E"/>
<path d="M55.4597 49.8445C55.4597 49.8445 62.224 16.9744 45.2544 12.0137C15.0401 3.18246 17.9107 35.9602 16.0817 35.4683C14.2526 34.9764 13.9454 24.4569 13.9454 24.4569C13.9454 24.4569 19.3634 20.1429 17.2341 18.5124C15.6567 17.3046 12.1441 21.9974 12.1441 21.9974C12.1441 21.9974 9.99863 16.6672 6.77929 18.0205C3.55995 19.3716 10.8439 24.7779 10.8439 24.7779C10.8439 24.7779 7.89705 41.3966 13.308 43.4681C20.98 46.4034 22.2363 35.9602 22.2363 35.9602L22.1139 49.8445H32.5594C32.5594 49.8445 32.1761 40.4012 38.0166 40.0155C45.4576 39.5236 45.6562 49.8445 45.6562 49.8445H55.4597Z" fill="#ADD4C9"/>
<path d="M55.4599 50.4215H45.661C45.3469 50.4215 45.0905 50.1697 45.0836 49.8557C45.0767 49.4769 44.8203 40.5741 38.5271 40.5741C38.3747 40.5741 38.2154 40.5787 38.0583 40.5902C32.8483 40.9343 33.1369 49.731 33.1393 49.821C33.1462 49.9781 33.0884 50.1305 32.9776 50.2437C32.8691 50.3568 32.7189 50.4215 32.5619 50.4215H22.1164C21.9616 50.4215 21.8138 50.3591 21.7053 50.2506C21.5967 50.142 21.5367 49.9919 21.539 49.8395L21.6244 40.1999C20.6429 42.3662 18.8993 44.5648 15.8647 44.5648C15.001 44.5648 14.0726 44.3777 13.105 44.0059C10.6108 43.0521 9.3891 39.4632 9.47224 33.3363C9.52304 29.662 10.0427 26.1286 10.2205 25.027C8.91336 24.0247 5.14668 20.9439 5.3961 18.8816C5.44921 18.4451 5.69401 17.8516 6.55774 17.4867C6.97574 17.3112 7.40299 17.2211 7.82561 17.2211C10.0196 17.2211 11.5715 19.5837 12.269 20.9093C13.2505 19.7269 15.128 17.7338 16.6268 17.7338C16.9871 17.7338 17.3104 17.8401 17.5853 18.0525C18.0518 18.4105 18.3012 18.9024 18.3081 19.4798C18.3266 21.4127 15.4352 23.9693 14.5322 24.7222C14.5599 25.4589 14.6569 27.5304 14.8925 29.632C15.2458 32.789 15.6846 34.0638 15.964 34.5742C16.0841 34.0546 16.2111 33.2001 16.3335 32.3664C17.3312 25.6505 19.6684 9.92334 35.8228 9.92334C38.705 9.92334 41.9336 10.4407 45.4162 11.4568C52.6123 13.5607 56.7208 20.9255 57.2982 32.759C57.7277 41.5671 56.0418 49.8764 56.0257 49.9596C55.9703 50.2298 55.7347 50.4215 55.4599 50.4215ZM46.2037 49.2668H54.9841C55.3236 47.4192 56.513 40.2877 56.1458 32.7959C55.5846 21.3527 51.8664 14.5445 45.0952 12.5653C41.7165 11.5792 38.5987 11.0781 35.8251 11.0781C20.6683 11.0781 18.4328 26.1147 17.479 32.5349C17.1003 35.0915 16.9571 36.0476 16.1257 36.0499C16.061 36.0568 15.9964 36.0407 15.934 36.0245C15.1811 35.8213 14.3336 34.9298 13.7562 29.8422C13.4514 27.1586 13.3706 24.4981 13.3706 24.4727C13.3659 24.2903 13.4468 24.1171 13.5876 24.0039C14.9733 22.9 17.1672 20.6968 17.1557 19.4913C17.1534 19.2719 17.0703 19.1102 16.8855 18.9694C16.8139 18.9139 16.7354 18.8885 16.6292 18.8885C15.6384 18.8885 13.6823 20.907 12.6084 22.3411C12.4837 22.5074 12.2782 22.5952 12.0727 22.5675C11.8671 22.5397 11.6893 22.4035 11.6108 22.2118C11.1789 21.1449 9.65699 18.3758 7.82561 18.3758C7.55772 18.3758 7.28059 18.4336 7.00577 18.5514C6.57852 18.7315 6.55312 18.9324 6.54388 19.0202C6.40301 20.1841 9.17663 22.8169 11.1928 24.3134C11.3683 24.4427 11.456 24.6621 11.4168 24.8769C10.6223 29.3687 9.44914 41.3685 13.5207 42.9274C14.3567 43.2484 15.1465 43.4101 15.867 43.4101C20.6984 43.4101 21.6591 35.9645 21.6683 35.8882C21.7053 35.5834 21.9709 35.364 22.278 35.3825C22.5829 35.4033 22.8207 35.6573 22.8184 35.9645L22.7006 49.2668H31.9799C32.003 47.082 32.4903 39.8004 37.9821 39.4378C38.1646 39.4263 38.3493 39.4194 38.5271 39.4194C44.9335 39.4194 46.0236 47.0936 46.2037 49.2668Z" fill="#3B321E"/>
<path d="M24.259 27.1951C24.0604 27.1951 23.8687 27.1281 23.7001 27.0011C22.9311 26.4145 22.7602 24.2922 22.7232 23.4077C22.7094 23.089 22.9565 22.8211 23.2752 22.8072C23.5939 22.7933 23.8618 23.0405 23.8756 23.3592C23.9218 24.4238 24.1204 25.5554 24.3213 25.9619C24.6308 25.6501 25.1042 24.6062 25.3791 23.5901C25.4622 23.2829 25.7786 23.1005 26.0857 23.1836C26.3929 23.2668 26.5753 23.5832 26.4945 23.8903C26.252 24.7933 25.5661 26.9226 24.4599 27.1743C24.3929 27.1859 24.326 27.1951 24.259 27.1951Z" fill="#3B321E"/>
<path d="M23.2986 32.2822C23.2986 32.2822 21.0677 40.8248 15.0493 43.9287C15.0493 43.9287 24.0838 43.1204 27.093 37.199C27.093 37.199 27.2339 30.176 23.2986 32.2822Z" fill="#F0E9C7"/>
<path d="M15.0492 44.5066C14.7951 44.5066 14.5665 44.3381 14.4949 44.0909C14.4187 43.8254 14.5388 43.5436 14.7836 43.4166C20.4994 40.4698 22.7188 32.2205 22.7396 32.1373C22.7811 31.9826 22.8828 31.851 23.0259 31.7748C24.3192 31.0819 25.4485 31.1789 26.2614 32.008C27.7025 33.4791 27.6771 36.8347 27.6702 37.2135C27.6679 37.3012 27.6471 37.3867 27.6078 37.4629C24.4901 43.5967 15.4833 44.472 15.1 44.5066C15.0838 44.5066 15.0653 44.5066 15.0492 44.5066ZM23.7857 32.6847C23.4162 33.9549 21.6403 39.4559 17.6404 42.867C20.4209 42.1764 24.6495 40.5806 26.5178 37.0564C26.5178 36.068 26.3307 33.7239 25.437 32.814C25.0144 32.3845 24.497 32.3591 23.7857 32.6847Z" fill="#3B321E"/>
<path d="M33.3862 10.6345V32.5833H47.9911V13.4358C47.9911 13.4358 42.9634 10.0109 33.3862 10.6345Z" fill="#E3A631"/>
<path d="M47.9908 33.1607H33.386C33.0672 33.1607 32.8086 32.902 32.8086 32.5833V10.6345C32.8086 10.3297 33.0442 10.0779 33.349 10.0572C34.1342 10.0064 34.9217 9.98096 35.6908 9.98096C43.8546 9.98096 48.1386 12.8377 48.3164 12.9601C48.4734 13.0664 48.5681 13.2465 48.5681 13.4382V32.5856C48.5681 32.9043 48.3095 33.1607 47.9908 33.1607ZM33.9633 32.006H47.4134V13.7592C46.4042 13.1772 42.3904 11.1357 35.6885 11.1357C35.1226 11.1357 34.543 11.1495 33.9633 11.1796V32.006Z" fill="#3B321E"/>
<path d="M28.0144 18.9362C28.0144 18.9362 32.2637 10.0057 35.4484 16.7284C38.6331 23.4512 35.6147 35.3378 27.0952 30.6774" fill="#ADD4C9"/>
<path d="M30.7005 32.3012C29.4904 32.3012 28.1786 31.9294 26.8161 31.1834C26.5366 31.031 26.4327 30.68 26.5875 30.4005C26.7399 30.1211 27.0909 30.0195 27.3703 30.1719C29.8715 31.5414 32.0331 31.4721 33.6197 29.9756C36.3194 27.4306 36.9406 21.2344 34.9245 16.9781C34.2409 15.5347 33.4949 14.8027 32.7051 14.8027C32.7051 14.8027 32.7051 14.8027 32.7028 14.8027C31.0031 14.8027 29.0747 18.0497 28.532 19.1883C28.3957 19.4769 28.0493 19.5993 27.7629 19.4608C27.4743 19.3245 27.3519 18.9781 27.4904 18.6917C27.7352 18.1744 29.9685 13.6479 32.7028 13.6479H32.7051C33.9799 13.6479 35.0769 14.6041 35.9683 16.4839C38.2108 21.2206 37.4833 27.9179 34.4118 30.8162C33.3633 31.8047 32.1001 32.3012 30.7005 32.3012Z" fill="#3B321E"/>
<path d="M15.9038 2.88783C15.9038 2.88783 21.2686 2.51832 22.2109 8.42583C22.2109 8.42583 22.8506 6.14182 21.622 4.01483C20.3933 1.88785 17.4835 2.26197 15.9038 2.88783Z" fill="#F2F2F2"/>
<path d="M22.1162 49.843C22.1162 49.843 22.3333 46.7645 24.6173 46.3696C26.9013 45.9747 27.2085 49.843 27.2085 49.843C27.2085 49.843 30.2385 43.5198 32.2084 49.843H22.1162Z" fill="#79A28B"/>
<path d="M22.1164 50.4204C21.9571 50.4204 21.8024 50.3535 21.6938 50.238C21.5853 50.1202 21.5298 49.9632 21.5391 49.8038C21.5483 49.6607 21.8185 46.2681 24.5182 45.8016C24.6591 45.7785 24.8 45.7646 24.9339 45.7646C26.4143 45.7646 27.1348 47.118 27.4789 48.2588C28.0886 47.402 28.9962 46.4552 30.0355 46.4552C31.1948 46.4552 32.0839 47.506 32.7583 49.6722C32.8137 49.8477 32.7814 50.0394 32.6728 50.1849C32.5643 50.3327 32.3911 50.4204 32.2086 50.4204H22.1164ZM24.9362 46.9194C24.867 46.9194 24.7931 46.9263 24.7169 46.9401C23.4605 47.1572 22.9755 48.469 22.7954 49.268H26.5413C26.3727 48.3951 25.9385 46.9194 24.9362 46.9194ZM30.0378 47.6099C29.4327 47.6099 28.7029 48.4782 28.1972 49.2657H31.3957C30.9754 48.2034 30.495 47.6099 30.0378 47.6099Z" fill="#3B321E"/>
<path d="M45.6606 49.8425C45.6606 49.8425 45.8777 46.764 48.1618 46.3691C50.4458 45.9742 50.7529 49.8425 50.7529 49.8425C50.7529 49.8425 53.7829 43.5193 55.7528 49.8425H45.6606Z" fill="#79A28B"/>
<path d="M45.6605 50.4198C45.5012 50.4198 45.3465 50.3529 45.2379 50.2351C45.1294 50.1173 45.0739 49.9603 45.0855 49.8009C45.0947 49.6577 45.3649 46.2652 48.0647 45.7987C48.2055 45.7756 48.3464 45.7617 48.4803 45.7617C49.9607 45.7617 50.6812 47.115 51.0253 48.2559C51.635 47.3991 52.5426 46.4522 53.5819 46.4522C54.7412 46.4522 55.6303 47.503 56.3047 49.6693C56.3601 49.8448 56.3278 50.0365 56.2192 50.182C56.1107 50.3298 55.9375 50.4175 55.755 50.4175L45.6605 50.4198ZM48.4803 46.9187C48.4111 46.9187 48.3372 46.9257 48.261 46.9395C47.0046 47.1566 46.5196 48.4684 46.3372 49.2674H50.0831C49.9168 48.3945 49.4826 46.9187 48.4803 46.9187ZM53.5819 47.6093C52.9768 47.6093 52.247 48.4776 51.7413 49.2651H54.9375C54.5172 48.2028 54.0368 47.6093 53.5819 47.6093Z" fill="#3B321E"/>
<path d="M34.1787 11.4189C34.1787 11.4189 42.9222 11.8924 47.3355 14.9639V13.86C47.3355 13.8623 40.3241 10.2388 34.1787 11.4189Z" fill="#F2F2F2"/>
</svg>
